# xmcd
#
# Track frame offsets:
#	150
#	17557
#	34927
#	60050
#	81600
#	99630
#	113400
#	130487
#	149722
#	173135
#	190062
#	213797
#
# Disc length: 3055 seconds
#
# Revision: 0
# Processed by: cddbd v1.5.2PL0 Copyright (c) Steve Scherf et al.
# Submitted via: dBpowerAMP V4.0
#
DISCID=a10bed0c
DTITLE=Sass Jordan - Get What You Give
DYEAR=2006
DGENRE=Country
TTITLE0=What You Gonna Do
TTITLE1=Shuffle
TTITLE2=Have You Ever Seen The Rain
TTITLE3=How Do I Get It Right
TTITLE4=I Want More
TTITLE5=Terminally Yours
TTITLE6=Torn In Two
TTITLE7=Love's Like Rain
TTITLE8=The Feeling's Gone
TTITLE9=Trouble
TTITLE10=Natural Disaster
TTITLE11=Even
EXTD=
EXTT0=
EXTT1=
EXTT2=
EXTT3=
EXTT4=
EXTT5=
EXTT6=
EXTT7=
EXTT8=
EXTT9=
EXTT10=
EXTT11=
PLAYORDER=
